<?xml version="1.0" encoding="UTF-8"?>
<svg id="Layer_2" xmlns="http://www.w3.org/2000/svg" xmlns:xlink="http://www.w3.org/1999/xlink" viewBox="0 0 41.4 41.4">
  <defs>
    <style>
      .cls-1, .cls-2 {
        fill: none;
      }

      .cls-2 {
        stroke: #4a1c00;
        stroke-linecap: round;
        stroke-linejoin: round;
      }

      .cls-3 {
        fill: url(#linear-gradient);
      }
    </style>
    <linearGradient id="linear-gradient" x1="-300.98" y1="742.32" x2="-300.98" y2="781.7" gradientTransform="translate(-280.28 780.57) rotate(-180)" gradientUnits="userSpaceOnUse">
      <stop offset="0" stop-color="#dc502d"/>
      <stop offset=".13" stop-color="#dc681d"/>
      <stop offset=".29" stop-color="#dc7d10"/>
      <stop offset=".46" stop-color="#dc8d07"/>
      <stop offset=".66" stop-color="#dc9601"/>
      <stop offset=".95" stop-color="#dc9900"/>
    </linearGradient>
  </defs>
  <g id="Layer_1-2" data-name="Layer_1">
    <g>
      <g>
        <path class="cls-3" d="M7.57,20.7c0,1.77-6.12,4.49-5.6,6.09.54,1.65,7.1.25,8.11,1.62,1.01,1.39-2.35,7.21-.96,8.22,1.38,1,5.86-3.98,7.52-3.44,1.6.52,2.29,7.2,4.06,7.2s2.46-6.68,4.06-7.2c1.65-.54,6.14,4.44,7.51,3.44,1.39-1.01-1.96-6.83-.95-8.22,1-1.37,7.57.03,8.11-1.63.52-1.59-5.61-4.31-5.61-6.08s6.13-4.49,5.61-6.09c-.54-1.65-7.11-.25-8.11-1.62-1.01-1.4,2.34-7.21.95-8.22-1.37-1-5.86,3.98-7.51,3.44-1.6-.52-2.29-7.2-4.06-7.2s-2.46,6.68-4.06,7.2c-1.66.54-6.14-4.44-7.52-3.44-1.39,1.01,1.97,6.82.96,8.22-1.01,1.37-7.57-.03-8.11,1.62-.52,1.6,5.6,4.32,5.6,6.09ZM20.7,12.78c4.37,0,7.92,3.55,7.92,7.92s-3.55,7.92-7.92,7.92-7.92-3.55-7.92-7.92,3.54-7.92,7.92-7.92Z"/>
        <path class="cls-2" d="M7.57,20.7c0,1.77-6.12,4.49-5.6,6.09.54,1.65,7.1.25,8.11,1.62,1.01,1.39-2.35,7.21-.96,8.22,1.38,1,5.86-3.98,7.52-3.44,1.6.52,2.29,7.2,4.06,7.2s2.46-6.68,4.06-7.2c1.65-.54,6.14,4.44,7.51,3.44,1.39-1.01-1.96-6.83-.95-8.22,1-1.37,7.57.03,8.11-1.63.52-1.59-5.61-4.31-5.61-6.08s6.13-4.49,5.61-6.09c-.54-1.65-7.11-.25-8.11-1.62-1.01-1.4,2.34-7.21.95-8.22-1.37-1-5.86,3.98-7.51,3.44-1.6-.52-2.29-7.2-4.06-7.2s-2.46,6.68-4.06,7.2c-1.66.54-6.14-4.44-7.52-3.44-1.39,1.01,1.97,6.82.96,8.22-1.01,1.37-7.57-.03-8.11,1.62-.52,1.6,5.6,4.32,5.6,6.09ZM20.7,12.78c4.37,0,7.92,3.55,7.92,7.92s-3.55,7.92-7.92,7.92-7.92-3.55-7.92-7.92,3.54-7.92,7.92-7.92Z"/>
      </g>
      <rect class="cls-1" width="41.4" height="41.4"/>
    </g>
  </g>
</svg>